<svg xmlns="http://www.w3.org/2000/svg" width="210" height="210" viewBox="0 0 55.56 55.56"><path d="M5.11 0A5.02 5.02 0 0 0 .1 5.03v30.95a5.02 5.02 0 0 0 5.02 5.03h5.56v-3.97H8.1A4.05 4.05 0 0 1 4.05 33V8.02c0-2.24 1.81-4.05 4.06-4.05h24.96c2.25 0 4.06 1.8 4.06 4.05v2.56h3.97V5.03A5.02 5.02 0 0 0 36.07 0H5.1zm14.55 14.55a5.01 5.01 0 0 0-4.6 3.03c1.26 1.7 2.4 3.53 3.55 5.05v-.06c0-2.24 1.8-4.05 4.05-4.05h24.96c2.25 0 4.06 1.8 4.06 4.05v24.97c0 2.25-1.8 4.05-4.06 4.05H22.66a4.05 4.05 0 0 1-4.05-4.05V39.2a18.44 18.44 0 0 1-3.97-2.7v14.04a5.02 5.02 0 0 0 5.02 5.02h30.96a5.02 5.02 0 0 0 5.03-5.02V19.58a5.02 5.02 0 0 0-5.03-5.03H19.66zm-9.45 2.34c-.2 0-.4.05-.58.14-.48.23-.78.88-.73 1.4a26.95 26.95 0 0 0 3.46 11 18.98 18.98 0 0 0 5.44 6.2c2.4 1.7 5.33 2.64 8.2 3.28 1.45.31 4.42.24 4.42.24v5.56c0 .45.39.92.8 1.06.34.12.79-.02 1.06-.26a87.9 87.9 0 0 0 4.76-4.5c1.32-1.32 2.65-2.65 4.89-5.04.22-.24.36-.58.36-.9 0-.32-.15-.66-.37-.9-2.23-2.42-3.56-3.74-4.88-5.07a88.23 88.23 0 0 0-4.76-4.5c-.24-.2-.76-.37-1.06-.26-.36.13-.8.42-.8.8v5.55s-2.88-.01-4.27-.38a19.25 19.25 0 0 1-6.97-3.2c-3.26-2.57-5.42-7.27-7.72-9.74a1.69 1.69 0 0 0-1.25-.48zM111.65 38.37c0-.34-.18-.62-.37-.9-3.72-3.96-4.4-4.65-9.73-9.66-.31-.12-.64-.22-.95-.08a1.6 1.6 0 0 0-.82.79v5.47c-1.93.02-3.44-.14-4.26-.38-2.87-.82-4.89-1.61-6.98-3.2-3.42-2.6-5.53-6-7.72-9.74-.4-.51-1.34-.62-1.83-.34-.46.26-.82.82-.73 1.41.67 4.56 1.59 7.66 3.46 11 1.36 2.4 3.18 4.6 5.44 6.2 2.4 1.7 4.29 2.64 8.2 3.27 1.44.23 3.94.22 4.42.24v5.38c.13.42.37.83.75 1.03.3.16.7.09 1.02-.04 5.44-5.46 5.72-5.67 9.74-9.55.18-.27.36-.57.36-.9zM73.17 3.47a4.46 4.46 0 0 0-4.38 4.47v32.52a4.46 4.46 0 0 0 4.38 4.47h8.86v-3.52h-8.86c-.54 0-.93-.4-.93-.95V7.94c0-.56.39-.95.93-.95h31.82c.55 0 .93.4.93.95v7.9h3.45v-7.9a4.45 4.45 0 0 0-4.38-4.47zm14.98 14.1a4.45 4.45 0 0 0-4.34 3.92 31.3 31.3 0 0 0 3.41 4.1v-3.55c0-.56.39-.95.93-.95h31.83c.54 0 .93.39.93.95v32.52c0 .55-.39.95-.93.95H88.15c-.54 0-.93-.4-.93-.95V41.67c-.55-.42-1.1-.87-1.68-1.36-.61-.51-1.2-1.06-1.76-1.63v15.88a4.45 4.45 0 0 0 4.37 4.47h31.83c2.4 0 4.37-2.03 4.37-4.47V22.04a4.45 4.45 0 0 0-4.37-4.48z"/></svg>